<mxfile host="app.diagrams.net" modified="2023-09-28T07:36:36.830Z" agent="Mozilla/5.0 (Windows NT 10.0; Win64; x64; rv:109.0) Gecko/20100101 Firefox/117.0" etag="0ZR8SaVJ7QdY2omzK8ej" version="21.8.2" type="device">
  <diagram id="C5RBs43oDa-KdzZeNtuy" name="Page-1">
    <mxGraphModel dx="1930" dy="878" grid="1" gridSize="10" guides="1" tooltips="1" connect="1" arrows="1" fold="1" page="1" pageScale="1" pageWidth="827" pageHeight="1169" math="0" shadow="0">
      <root>
        <mxCell id="WIyWlLk6GJQsqaUBKTNV-0" />
        <mxCell id="WIyWlLk6GJQsqaUBKTNV-1" parent="WIyWlLk6GJQsqaUBKTNV-0" />
        <mxCell id="GRbMy3bL4gG7srACkzMk-0" value="ENTRY" style="text;html=1;align=center;verticalAlign=middle;resizable=0;points=[];autosize=1;strokeColor=none;fillColor=none;" vertex="1" parent="WIyWlLk6GJQsqaUBKTNV-1">
          <mxGeometry x="177" y="108" width="70" height="30" as="geometry" />
        </mxCell>
        <mxCell id="GRbMy3bL4gG7srACkzMk-196" value="" style="edgeStyle=orthogonalEdgeStyle;rounded=0;orthogonalLoop=1;jettySize=auto;html=1;" edge="1" parent="WIyWlLk6GJQsqaUBKTNV-1" source="GRbMy3bL4gG7srACkzMk-194" target="GRbMy3bL4gG7srACkzMk-195">
          <mxGeometry relative="1" as="geometry" />
        </mxCell>
        <mxCell id="GRbMy3bL4gG7srACkzMk-204" value="" style="edgeStyle=orthogonalEdgeStyle;rounded=0;orthogonalLoop=1;jettySize=auto;html=1;" edge="1" parent="WIyWlLk6GJQsqaUBKTNV-1" source="GRbMy3bL4gG7srACkzMk-194" target="GRbMy3bL4gG7srACkzMk-203">
          <mxGeometry relative="1" as="geometry" />
        </mxCell>
        <mxCell id="GRbMy3bL4gG7srACkzMk-194" value="&lt;font style=&quot;font-size: 18px;&quot;&gt;There exists useable data in the given save file&lt;/font&gt;" style="rhombus;whiteSpace=wrap;html=1;" vertex="1" parent="WIyWlLk6GJQsqaUBKTNV-1">
          <mxGeometry x="75" y="340" width="200" height="110" as="geometry" />
        </mxCell>
        <mxCell id="GRbMy3bL4gG7srACkzMk-198" value="" style="edgeStyle=orthogonalEdgeStyle;rounded=0;orthogonalLoop=1;jettySize=auto;html=1;" edge="1" parent="WIyWlLk6GJQsqaUBKTNV-1" source="GRbMy3bL4gG7srACkzMk-195" target="GRbMy3bL4gG7srACkzMk-197">
          <mxGeometry relative="1" as="geometry" />
        </mxCell>
        <mxCell id="GRbMy3bL4gG7srACkzMk-195" value="&lt;font style=&quot;font-size: 18px;&quot;&gt;Read information about (world dimensions, the items that occupy each location,the location of the player, the items in the player inventory, and whether or not they have unlockMode enabled)&lt;/font&gt;" style="rounded=0;whiteSpace=wrap;html=1;" vertex="1" parent="WIyWlLk6GJQsqaUBKTNV-1">
          <mxGeometry x="40" y="490" width="270" height="150" as="geometry" />
        </mxCell>
        <mxCell id="GRbMy3bL4gG7srACkzMk-205" value="" style="edgeStyle=orthogonalEdgeStyle;rounded=0;orthogonalLoop=1;jettySize=auto;html=1;entryX=0;entryY=0.5;entryDx=0;entryDy=0;" edge="1" parent="WIyWlLk6GJQsqaUBKTNV-1" source="GRbMy3bL4gG7srACkzMk-197" target="GRbMy3bL4gG7srACkzMk-208">
          <mxGeometry relative="1" as="geometry">
            <mxPoint x="390" y="730" as="targetPoint" />
            <Array as="points">
              <mxPoint x="360" y="740" />
              <mxPoint x="360" y="740" />
            </Array>
          </mxGeometry>
        </mxCell>
        <mxCell id="GRbMy3bL4gG7srACkzMk-197" value="&lt;font style=&quot;font-size: 18px;&quot;&gt;OUTPUT A CONFIRMATORY MESSAGE&lt;/font&gt;" style="shape=parallelogram;perimeter=parallelogramPerimeter;whiteSpace=wrap;html=1;fixedSize=1;" vertex="1" parent="WIyWlLk6GJQsqaUBKTNV-1">
          <mxGeometry x="70" y="700" width="210" height="80" as="geometry" />
        </mxCell>
        <mxCell id="GRbMy3bL4gG7srACkzMk-201" value="" style="edgeStyle=orthogonalEdgeStyle;rounded=0;orthogonalLoop=1;jettySize=auto;html=1;" edge="1" parent="WIyWlLk6GJQsqaUBKTNV-1" source="GRbMy3bL4gG7srACkzMk-199" target="GRbMy3bL4gG7srACkzMk-194">
          <mxGeometry relative="1" as="geometry" />
        </mxCell>
        <mxCell id="GRbMy3bL4gG7srACkzMk-199" value="parameters(fileName)" style="ellipse;whiteSpace=wrap;html=1;" vertex="1" parent="WIyWlLk6GJQsqaUBKTNV-1">
          <mxGeometry x="84.25" y="170" width="181.5" height="100" as="geometry" />
        </mxCell>
        <mxCell id="GRbMy3bL4gG7srACkzMk-200" value="" style="endArrow=classic;html=1;rounded=0;entryX=0.5;entryY=0;entryDx=0;entryDy=0;" edge="1" parent="WIyWlLk6GJQsqaUBKTNV-1" target="GRbMy3bL4gG7srACkzMk-199">
          <mxGeometry width="50" height="50" relative="1" as="geometry">
            <mxPoint x="175" y="90" as="sourcePoint" />
            <mxPoint x="330" y="370" as="targetPoint" />
          </mxGeometry>
        </mxCell>
        <mxCell id="GRbMy3bL4gG7srACkzMk-206" style="edgeStyle=orthogonalEdgeStyle;rounded=0;orthogonalLoop=1;jettySize=auto;html=1;entryX=0.5;entryY=0;entryDx=0;entryDy=0;" edge="1" parent="WIyWlLk6GJQsqaUBKTNV-1" source="GRbMy3bL4gG7srACkzMk-203" target="GRbMy3bL4gG7srACkzMk-208">
          <mxGeometry relative="1" as="geometry">
            <mxPoint x="450" y="690" as="targetPoint" />
          </mxGeometry>
        </mxCell>
        <mxCell id="GRbMy3bL4gG7srACkzMk-203" value="&lt;font style=&quot;font-size: 18px;&quot;&gt;OUTPUT AN ERROR MESSAGE&lt;/font&gt;" style="shape=parallelogram;perimeter=parallelogramPerimeter;whiteSpace=wrap;html=1;fixedSize=1;" vertex="1" parent="WIyWlLk6GJQsqaUBKTNV-1">
          <mxGeometry x="380" y="350" width="200" height="90" as="geometry" />
        </mxCell>
        <mxCell id="GRbMy3bL4gG7srACkzMk-207" value="&lt;font style=&quot;font-size: 24px;&quot;&gt;END&lt;/font&gt;" style="ellipse;whiteSpace=wrap;html=1;" vertex="1" parent="WIyWlLk6GJQsqaUBKTNV-1">
          <mxGeometry x="420" y="880" width="120" height="80" as="geometry" />
        </mxCell>
        <mxCell id="GRbMy3bL4gG7srACkzMk-209" value="" style="edgeStyle=orthogonalEdgeStyle;rounded=0;orthogonalLoop=1;jettySize=auto;html=1;" edge="1" parent="WIyWlLk6GJQsqaUBKTNV-1" source="GRbMy3bL4gG7srACkzMk-208" target="GRbMy3bL4gG7srACkzMk-207">
          <mxGeometry relative="1" as="geometry" />
        </mxCell>
        <mxCell id="GRbMy3bL4gG7srACkzMk-208" value="&lt;font style=&quot;font-size: 24px;&quot;&gt;waitForEnter&lt;/font&gt;" style="shape=process;whiteSpace=wrap;html=1;backgroundOutline=1;" vertex="1" parent="WIyWlLk6GJQsqaUBKTNV-1">
          <mxGeometry x="390" y="690" width="180" height="100" as="geometry" />
        </mxCell>
        <mxCell id="GRbMy3bL4gG7srACkzMk-210" value="&lt;font style=&quot;font-size: 24px;&quot;&gt;TRUE &lt;/font&gt;" style="text;html=1;align=center;verticalAlign=middle;resizable=0;points=[];autosize=1;strokeColor=none;fillColor=none;" vertex="1" parent="WIyWlLk6GJQsqaUBKTNV-1">
          <mxGeometry x="170" y="450" width="90" height="40" as="geometry" />
        </mxCell>
        <mxCell id="GRbMy3bL4gG7srACkzMk-211" value="&lt;font style=&quot;font-size: 24px;&quot;&gt;FALSE&lt;/font&gt;" style="text;html=1;align=center;verticalAlign=middle;resizable=0;points=[];autosize=1;strokeColor=none;fillColor=none;" vertex="1" parent="WIyWlLk6GJQsqaUBKTNV-1">
          <mxGeometry x="275" y="350" width="100" height="40" as="geometry" />
        </mxCell>
      </root>
    </mxGraphModel>
  </diagram>
</mxfile>
